<?xml version="1.0" standalone="no"?>
<!DOCTYPE svg PUBLIC "-//W3C//DTD SVG 20010904//EN"
 "http://www.w3.org/TR/2001/REC-SVG-20010904/DTD/svg10.dtd">
<svg version="1.0" xmlns="http://www.w3.org/2000/svg"
 width="668.000000pt" height="668.000000pt" viewBox="0 0 668.000000 668.000000"
 preserveAspectRatio="xMidYMid meet">
<metadata>
Created by potrace 1.14, written by Peter Selinger 2001-2017
</metadata>
<g transform="translate(0.000000,668.000000) scale(0.100000,-0.100000)"
fill="#000000" stroke="none">
<path d="M0 3340 l0 -3340 3340 0 3340 0 0 3340 0 3340 -3340 0 -3340 0 0
-3340z m3320 2995 c46 -49 24 -126 -41 -140 -58 -13 -119 45 -105 101 17 65
100 88 146 39z m1018 -471 c63 -41 62 -146 -1 -184 -116 -71 -238 80 -139 172
15 14 34 28 42 31 22 9 70 -1 98 -19z m-2117 -21 c121 -72 21 -257 -106 -197
-47 22 -69 65 -62 118 11 81 97 121 168 79z m1073 -78 c33 -75 94 -141 174
-187 29 -16 51 -35 50 -40 -2 -6 -23 -18 -47 -28 -87 -34 -158 -112 -188 -206
-9 -30 -19 -54 -23 -54 -3 0 -14 26 -24 58 -27 90 -78 150 -163 192 -40 19
-71 39 -69 45 1 5 28 23 59 40 30 17 67 41 81 55 34 31 80 104 97 153 7 20 16
37 19 37 3 0 18 -29 34 -65z m-273 -524 c40 -40 41 -100 3 -130 -64 -50 -154
-11 -154 67 0 85 91 123 151 63z m607 -6 c33 -39 30 -87 -9 -119 -94 -79 -205
39 -119 126 27 26 36 30 68 25 22 -4 46 -17 60 -32z m988 -208 c-4 -96 -13
-196 -20 -223 -30 -114 -143 -288 -281 -436 l-54 -57 -26 46 c-69 116 -220
267 -361 360 -18 11 -15 16 31 59 139 131 389 285 630 388 44 19 82 35 84 35
2 1 1 -77 -3 -172z m-2571 74 c88 -43 201 -106 250 -138 80 -53 295 -218 295
-226 0 -2 -35 -31 -77 -64 -110 -85 -209 -187 -273 -280 l-54 -79 -50 55
c-121 137 -219 288 -257 396 -19 53 -49 290 -49 382 0 44 1 45 28 39 15 -4 99
-42 187 -85z m-1200 24 c53 -53 17 -135 -60 -135 -44 0 -74 27 -81 72 -5 30
-2 41 19 62 35 35 89 35 122 1z m5499 -218 c54 -31 78 -67 84 -126 l5 -51
-602 0 -602 0 7 47 c4 26 15 61 25 78 23 39 65 63 80 48 8 -8 7 -13 -2 -18 -8
-5 -10 -4 -5 3 4 7 3 12 -3 12 -20 0 -21 -19 -1 -25 11 -3 20 -10 20 -15 0 -5
-7 -7 -15 -4 -8 4 -23 3 -32 -1 -15 -6 -13 -9 11 -16 39 -11 46 -5 46 40 0 21
3 41 7 44 3 4 216 7 472 7 464 0 466 0 505 -23z m-2964 -201 c239 -39 460
-171 632 -376 145 -173 232 -451 211 -675 -7 -75 -10 -79 -108 -160 -33 -28
-62 -52 -65 -55 -3 -3 -68 -59 -145 -125 -220 -189 -225 -194 -225 -244 0 -85
89 -130 156 -79 41 32 302 257 411 355 51 46 107 92 125 103 70 43 173 11 203
-62 28 -71 21 -105 -47 -219 -79 -134 -310 -507 -360 -581 l-39 -58 -372 0
c-346 0 -374 -1 -403 -19 -65 -40 -64 -25 -64 -689 l0 -600 -482 -4 -483 -4
-54 35 c-84 56 -165 150 -210 244 -61 126 -75 192 -74 337 1 153 34 291 112
477 l52 121 86 -89 c55 -57 97 -92 117 -97 66 -18 126 30 126 101 0 37 -6 46
-92 131 -51 50 -114 123 -139 161 -110 166 -199 311 -291 470 -107 185 -116
216 -80 284 23 47 61 72 113 78 60 6 84 -11 388 -276 267 -232 275 -237 335
-210 25 12 56 63 56 93 0 37 -31 72 -181 202 -87 75 -156 141 -153 146 3 5 0
7 -6 6 -13 -3 -186 140 -195 161 -3 8 -8 55 -12 105 -17 277 121 584 352 784
221 190 520 275 805 228z m3058 -733 c-4 -642 -3 -630 -56 -686 -63 -67 -27
-65 -952 -58 -80 1 -135 32 -172 95 l-23 41 0 602 0 603 603 0 603 0 -3 -597z
m-5285 183 c359 -178 661 -330 671 -338 18 -14 17 -18 -29 -104 -48 -90 -93
-168 -226 -394 -71 -120 -99 -174 -99 -190 0 -8 198 -177 291 -249 35 -27 89
-71 118 -98 l55 -49 -89 -114 -89 -113 79 -72 78 -72 -23 -57 c-12 -31 -26
-58 -30 -61 -7 -4 -168 128 -290 237 -46 41 -53 51 -43 66 7 9 32 52 57 94 44
74 56 108 38 108 -5 0 -66 38 -136 85 -70 47 -173 115 -229 150 -56 36 -112
73 -125 83 l-23 18 35 74 c77 166 107 242 103 253 -5 14 -65 42 -521 241 -170
75 -311 138 -314 141 -3 3 9 142 27 308 40 368 41 377 53 377 5 0 303 -146
661 -324z m3578 9 c59 -31 62 -111 6 -146 -44 -26 -64 -24 -98 10 -45 46 -33
118 25 141 30 12 33 12 67 -5z m-4181 -1214 c59 -42 63 -120 9 -165 -69 -58
-179 -7 -179 84 0 89 96 134 170 81z m2980 -641 c0 -31 21 -68 41 -73 15 -4
19 0 19 19 0 13 9 28 20 34 21 11 18 35 -4 27 -6 -2 -20 -1 -31 3 -11 5 222 9
518 9 l539 2 -5 -218 c-4 -120 -7 -222 -8 -228 -1 -5 1 -22 4 -37 3 -16 2 -28
-2 -28 -17 0 -39 36 -37 60 3 31 -2 42 -15 35 -5 -4 -4 -15 2 -28 7 -12 -31
19 -84 70 -107 103 -167 138 -269 155 -172 28 -353 -67 -434 -227 l-30 -60
-53 -3 c-66 -4 -81 8 -79 62 l1 41 7 -45 c3 -25 6 45 6 154 -1 174 -3 199 -17
201 -9 2 -16 -3 -16 -11 0 -7 4 -11 9 -8 4 3 8 -6 8 -19 0 -14 -7 -27 -15 -31
-9 -3 -15 -18 -15 -36 0 -16 -4 -30 -9 -30 -5 0 -11 -23 -13 -50 -2 -42 0 -50
15 -50 9 0 17 8 18 18 0 12 3 10 10 -8 14 -34 1 -180 -16 -174 -6 3 -30 1 -53
-4 l-41 -10 -3 254 c-3 236 -2 254 15 254 10 0 17 -8 17 -20z m1712 -213 c24
-24 60 -83 101 -169 98 -203 524 -1095 558 -1166 30 -65 36 -92 19 -92 -6 0
-110 -57 -233 -126 -122 -69 -268 -152 -324 -184 -56 -32 -113 -60 -127 -64
-17 -4 -44 4 -91 29 -50 27 -87 38 -148 46 -118 15 -211 61 -295 146 -109 110
-162 237 -162 389 l0 82 -47 53 c-143 163 -285 321 -339 379 -90 95 -114 126
-106 135 4 5 2 5 -4 2 -15 -9 -60 40 -78 85 -29 67 -14 160 32 211 32 36 94
60 152 60 105 0 89 13 526 -442 l71 -74 52 19 c49 17 52 20 47 46 -4 21 -9
610 -6 834 0 20 18 13 183 -71 107 -54 197 -107 219 -128z m-3923 -449 c19
-58 38 -77 94 -99 32 -12 43 -22 45 -41 3 -22 -3 -27 -43 -38 -55 -15 -93 -56
-101 -111 -6 -34 -10 -39 -33 -39 -23 0 -29 7 -44 50 -22 61 -49 88 -105 103
-37 10 -43 15 -40 36 2 20 13 29 47 42 53 19 86 55 102 110 11 34 16 40 37 37
20 -2 29 -13 41 -50z m2441 -25 c0 -27 44 -113 80 -158 17 -22 65 -75 106
-117 41 -43 88 -93 104 -112 l30 -34 -295 -1 -295 -2 0 221 0 220 135 0 c122
0 135 -2 135 -17z m-459 -1348 c29 -15 49 -49 49 -81 0 -28 -56 -74 -90 -74
-84 0 -113 122 -36 156 40 17 41 17 77 -1z"/>
<path d="M5260 4780 c-18 -12 -23 -11 160 -14 75 -1 141 -6 148 -10 7 -4 56
-10 109 -13 72 -3 98 -1 105 9 8 10 11 10 15 1 6 -16 109 -18 118 -3 3 6 1 10
-5 10 -6 0 -8 5 -5 10 8 13 85 13 85 1 0 -5 -6 -12 -12 -14 -7 -3 39 -5 102
-4 109 1 111 1 40 7 -41 4 -64 8 -50 9 61 6 268 5 293 -2 15 -4 27 -3 27 2 0
17 -84 21 -528 21 -300 0 -451 -3 -447 -10 3 -5 -1 -10 -9 -10 -8 0 -18 5 -21
10 -8 13 -105 13 -125 0z m357 -6 c-3 -3 -12 -4 -19 -1 -8 3 -5 6 6 6 11 1 17
-2 13 -5z m133 -4 c0 -5 -4 -10 -9 -10 -6 0 -13 5 -16 10 -3 6 1 10 9 10 9 0
16 -4 16 -10z"/>
<path d="M5260 4748 c0 -4 24 -7 53 -7 54 1 49 5 -15 11 -21 2 -38 0 -38 -4z"/>
<path d="M2669 4000 c-89 -15 -159 -97 -159 -185 0 -127 118 -225 233 -194
147 39 202 204 105 315 -49 56 -106 76 -179 64z m90 -136 c28 -36 26 -68 -5
-93 -33 -26 -58 -27 -84 -1 -41 41 -12 120 44 120 15 0 33 -11 45 -26z"/>
<path d="M3694 4001 c-85 -21 -145 -90 -152 -176 -7 -91 55 -178 149 -206 113
-33 239 69 239 193 0 118 -122 216 -236 189z m67 -124 c29 -22 40 -54 28 -80
-27 -60 -100 -60 -125 -1 -15 35 -13 45 14 77 17 20 60 22 83 4z"/>
<path d="M3154 3696 c-26 -40 -12 -73 37 -88 34 -10 46 -9 67 3 40 23 50 45
32 77 -13 23 -23 27 -67 30 -46 3 -54 0 -69 -22z"/>
<path d="M2340 3550 c-8 -5 -12 -11 -10 -14 3 -2 14 2 24 10 22 15 10 19 -14
4z"/>
<path d="M2914 3539 c-48 -53 -4 -168 81 -216 65 -37 152 -28 202 19 21 20 24
20 41 5 10 -9 34 -23 55 -32 94 -39 200 8 242 107 20 50 19 80 -6 112 -32 41
-79 36 -115 -11 -28 -38 -43 -53 -55 -53 -3 0 -26 15 -51 34 -25 19 -60 37
-79 41 -29 5 -42 0 -88 -35 -29 -22 -56 -40 -60 -40 -13 0 -28 16 -50 53 -20
32 -27 37 -60 37 -26 0 -44 -7 -57 -21z"/>
<path d="M2360 3528 l-23 -21 23 -19 c27 -22 26 -23 34 25 8 42 0 46 -34 15z"/>
<path d="M5733 4374 c-59 -22 -134 -92 -162 -153 l-24 -50 -81 -3 -81 -3 -3
-82 -3 -83 85 0 86 0 19 -39 c67 -130 246 -190 376 -126 57 28 131 102 141
142 6 22 10 23 100 23 l94 0 0 85 0 85 -87 0 -88 0 -17 43 c-22 52 -88 121
-142 149 -54 27 -156 33 -213 12z m140 -166 c61 -32 90 -104 63 -156 -60 -117
-226 -82 -226 48 0 87 91 147 163 108z"/>
<path d="M3548 2135 c5 -28 22 -24 22 6 0 10 -6 19 -14 19 -9 0 -12 -8 -8 -25z"/>
<path d="M3540 2039 c0 -24 4 -38 10 -34 6 3 10 22 10 41 0 19 -4 34 -10 34
-5 0 -10 -18 -10 -41z"/>
<path d="M3560 1930 c0 -5 6 -10 14 -10 8 0 17 -12 19 -27 l4 -28 2 27 c0 18
-6 31 -19 38 -14 7 -20 7 -20 0z"/>
</g>
</svg>
